<svg width="32" height="28" viewBox="0 0 32 28" fill="none" xmlns="http://www.w3.org/2000/svg">
<path d="M23.3977 18.3131L20.1602 21.5532" stroke="#FC7247" stroke-miterlimit="10" stroke-linecap="round" stroke-linejoin="round"/>
<path d="M30.2086 12.5999C30.7314 13.3472 31 14.2298 31 15.1197C31 15.9369 30.7736 16.7613 30.3047 17.4906C29.0021 19.5215 26.3045 20.1279 24.2572 18.8496L23.3984 18.3132L17.801 14.8192C17.4012 14.5698 16.9179 14.4792 16.4607 14.5932C15.9253 14.7286 15.3674 14.7367 15.026 14.5465L11.4534 12.5694C10.3871 11.9792 9.92088 10.6946 10.3593 9.55894C10.7168 8.63408 11.1318 7.56661 11.4903 6.57358C11.6564 6.1152 12.1901 5.91425 12.6159 6.15017L16.3852 8.23669C16.3547 7.72538 16.2433 6.66686 16.1624 5.9268C16.1229 5.57785 16.3448 5.23968 16.6879 5.16971C16.9898 5.10871 17.2826 5.25403 17.4201 5.51238C17.7749 6.17978 18.5475 7.66617 18.7747 8.36587C18.8358 8.55156 18.9203 8.86373 19.0002 9.1768C19.1215 9.65672 19.0999 10.1591 18.9454 10.6219L27.1399 14.5698" stroke="#FC7247" stroke-miterlimit="10" stroke-linecap="round" stroke-linejoin="round"/>
<path d="M2.11978 11.797C1.85747 12.0886 1.63019 12.4214 1.44693 12.7946C0.384221 14.9591 1.28164 17.5731 3.45019 18.6325L11.4102 22.523C11.8315 22.7293 12.1639 23.0872 12.3076 23.5331C12.4774 24.0605 12.7694 24.5369 13.1125 24.7252L16.6888 26.696C17.7569 27.2845 19.0945 26.9966 19.8248 26.0224C20.4177 25.2294 21.1031 24.3081 21.7553 23.4774C22.0553 23.0953 21.9412 22.5356 21.5154 22.3005L20.1599 21.5533L17.7407 20.2212C18.1925 19.9763 19.1493 19.5089 19.8203 19.1824C20.1347 19.0299 20.3045 18.6657 20.1832 18.3392C20.0763 18.0503 19.796 17.8772 19.5032 17.8987C18.7495 17.9535 17.0777 18.0907 16.3609 18.2701C16.1704 18.3167 15.8632 18.4118 15.556 18.5114C15.0825 18.6621 14.6693 18.9474 14.3585 19.325L5.02765 13.5723C4.088 12.9928 3.34689 12.1289 2.9678 11.0929C2.966 11.0866 2.96331 11.0803 2.96151 11.0731C1.99941 8.41967 2.58511 5.33026 4.71682 3.20068C7.65433 0.266445 12.4199 0.266445 15.3574 3.20068L16.2989 4.14077L17.2412 3.20068C20.1787 0.266445 24.9443 0.266445 27.8818 3.20068C30.8211 6.1358 30.8211 10.8928 27.8818 13.8262L27.1389 14.5698" stroke="#FC7247" stroke-miterlimit="10"/>
</svg>
