<svg width="31" height="37" viewBox="0 0 31 37" fill="none" xmlns="http://www.w3.org/2000/svg">
<path d="M20.1107 16.5601V8.2605C20.1107 7.23264 19.3494 6.33047 18.3251 6.24133C17.1617 6.13881 16.1855 7.05434 16.1855 8.19453" stroke="#FC7247" stroke-miterlimit="10" stroke-linecap="round" stroke-linejoin="round"/>
<path d="M21.3292 21.3875L22.3268 19.7561C23.615 17.6629 25.3854 16.6965 26.8866 17.2573C27.9707 17.6629 28.4458 18.7897 27.4696 19.6812C27.0293 20.0404 26.6379 20.4541 26.3072 20.9096C25.9764 21.3652 25.7054 21.8653 25.5013 22.3948L23.2503 28.2642C23.2405 28.2829 23.2316 28.3017 23.22 28.3204C21.6751 31.207 18.6432 32.9863 15.3689 32.9863H11.2984C7.26722 32.9863 4 29.72 4 25.6888V11.6045C4 10.4795 4.94941 9.57195 6.09138 9.64594C7.13529 9.71637 7.92334 10.6283 7.92334 11.6714" stroke="#FC7247" stroke-miterlimit="10" stroke-linecap="round" stroke-linejoin="round"/>
<path d="M16.1866 14.8267V6.16873C16.1866 4.9706 15.2158 3.9998 14.0177 3.9998C12.8204 3.9998 11.8496 4.9706 11.8496 6.16873V14.8267" stroke="#FC7247" stroke-miterlimit="10" stroke-linecap="round" stroke-linejoin="round"/>
<path d="M7.92578 15.4536V8.14091C7.92578 7.05689 8.80387 6.1779 9.8879 6.1779C10.9719 6.1779 11.8509 7.05689 11.8509 8.14091" stroke="#FC7247" stroke-miterlimit="10" stroke-linecap="round" stroke-linejoin="round"/>
<path d="M20.4049 16.9271C18.7842 15.3074 16.1579 15.3074 14.5381 16.9271L14.0184 17.4469L13.4996 16.9271C11.8798 15.3074 9.25261 15.3074 7.63282 16.9271C6.01302 18.5478 6.01302 21.1741 7.63282 22.7939L14.0121 29.1732L14.0184 29.1804L14.0255 29.1875L20.4049 22.7939C22.0247 21.1741 22.0247 18.5478 20.4049 16.9271Z" stroke="#FC7247" stroke-miterlimit="10"/>
</svg>
