<svg width="32" height="32" viewBox="0 0 32 32" fill="none" xmlns="http://www.w3.org/2000/svg">
<path d="M21.5694 11.8748C20.1557 10.4619 17.8648 10.4619 16.4519 11.8748L15.9995 12.3272L15.5464 11.8748C14.1335 10.4619 11.8426 10.4619 10.4288 11.8748C9.01591 13.2878 9.01591 15.5787 10.4288 16.9916L15.9932 22.5561L15.9995 22.5624L16.005 22.5679L21.5694 16.9916C22.9824 15.5787 22.9824 13.2878 21.5694 11.8748Z" stroke="white" stroke-miterlimit="10" stroke-linecap="round" stroke-linejoin="round"/>
<path d="M14.6132 26.7554C12.7417 25.8097 10.8897 24.4786 9.2054 22.7935C3.44825 17.0363 1.82212 9.32727 5.57473 5.57543C7.68862 3.46153 11.0581 3.0548 14.6266 4.13102" stroke="white" stroke-miterlimit="10" stroke-linecap="round" stroke-linejoin="round"/>
<path d="M17.2617 5.18199C19.175 6.13155 21.0718 7.48392 22.7931 9.20604C28.5502 14.9632 30.1764 22.6722 26.4237 26.4241C24.3099 28.538 20.9404 28.9455 17.3711 27.8685" stroke="white" stroke-miterlimit="10" stroke-linecap="round" stroke-linejoin="round"/>
<path d="M5.11133 14.8791C6.06325 12.9186 7.44 10.9707 9.20459 9.20609C14.9617 3.4489 22.6707 1.82355 26.4225 5.5754C28.586 7.73886 28.962 11.2177 27.7883 14.8799" stroke="white" stroke-miterlimit="10"/>
<path d="M26.7167 17.461C25.7726 19.3067 24.4549 21.1318 22.7926 22.7934C17.0354 28.5514 9.32645 30.1767 5.57463 26.4241C3.46231 24.3118 3.054 20.9454 4.12865 17.3784" stroke="white" stroke-miterlimit="10"/>
</svg>
