<svg width="33" height="30" viewBox="0 0 33 30" fill="none" xmlns="http://www.w3.org/2000/svg">
<path d="M24.2587 2.44612L22.6914 3.95068" stroke="#FC7247" stroke-miterlimit="10"/>
<path d="M8.74219 2.44598L10.3103 3.94971" stroke="#FC7247" stroke-miterlimit="10"/>
<path d="M16.457 -0.000232798V1.93408" stroke="#FC7247" stroke-miterlimit="10"/>
<path d="M18.2008 20.8844C18.2008 21.8372 17.4285 22.6094 16.4758 22.6094C15.523 22.6094 14.75 21.8372 14.75 20.8844C14.75 19.9317 15.523 19.1586 16.4758 19.1586C17.4285 19.1586 18.2008 19.9317 18.2008 20.8844Z" stroke="#FC7247" stroke-miterlimit="10" stroke-linecap="round" stroke-linejoin="round"/>
<path d="M13.6406 14.9957L16.5006 19.022L19.3614 14.9957" stroke="#FC7247" stroke-miterlimit="10" stroke-linecap="round" stroke-linejoin="round"/>
<path d="M12.752 9.10342C12.752 11.3251 14.4193 13.1255 16.4748 13.1255C18.5312 13.1255 20.1976 11.3251 20.1976 9.10342C20.1976 6.88175 18.5312 5.08051 16.4748 5.08051C14.4193 5.08051 12.752 6.88175 12.752 9.10342Z" stroke="#FC7247" stroke-miterlimit="10"/>
<path d="M11.7532 28.8149V21.9507C11.7532 20.7869 11.3107 19.6663 10.5156 18.8161L1.60691 9.29372C0.777919 8.40708 0.800799 7.02289 1.65946 6.16507C2.53847 5.28607 3.96336 5.28607 4.84236 6.16507L13.1755 14.4982C13.9045 15.2272 14.8937 15.6366 15.9253 15.6366H17.0756C18.1063 15.6366 19.0955 15.2272 19.8253 14.4982L28.1585 6.16507C29.0375 5.28607 30.4624 5.28607 31.3405 6.16507C32.1992 7.02289 32.2221 8.40708 31.3931 9.29372L22.4852 18.8161C21.6893 19.6663 21.2468 20.7869 21.2468 21.9507V28.8149" stroke="#FC7247" stroke-miterlimit="10" stroke-linecap="round" stroke-linejoin="round"/>
</svg>
