<svg width="39" height="37" viewBox="0 0 39 37" fill="none" xmlns="http://www.w3.org/2000/svg">
<path d="M27.2587 6.44612L25.6914 7.95068" stroke="url(#paint0_linear_1001_305)" stroke-miterlimit="10"/>
<path d="M11.7422 6.44598L13.3103 7.94971" stroke="url(#paint1_linear_1001_305)" stroke-miterlimit="10"/>
<path d="M19.457 3.99977V5.93408" stroke="url(#paint2_linear_1001_305)" stroke-miterlimit="10"/>
<path d="M21.2008 24.8844C21.2008 25.8372 20.4285 26.6094 19.4758 26.6094C18.523 26.6094 17.75 25.8372 17.75 24.8844C17.75 23.9317 18.523 23.1586 19.4758 23.1586C20.4285 23.1586 21.2008 23.9317 21.2008 24.8844Z" stroke="white" stroke-miterlimit="10" stroke-linecap="round" stroke-linejoin="round"/>
<path d="M16.6406 18.9957L19.5006 23.022L22.3614 18.9957" stroke="white" stroke-miterlimit="10" stroke-linecap="round" stroke-linejoin="round"/>
<path d="M15.752 13.1034C15.752 15.3251 17.4193 17.1255 19.4748 17.1255C21.5312 17.1255 23.1976 15.3251 23.1976 13.1034C23.1976 10.8817 21.5312 9.08051 19.4748 9.08051C17.4193 9.08051 15.752 10.8817 15.752 13.1034Z" stroke="url(#paint3_linear_1001_305)" stroke-miterlimit="10"/>
<path d="M14.7532 32.8149V25.9507C14.7532 24.7869 14.3107 23.6663 13.5156 22.8161L4.60691 13.2937C3.77792 12.4071 3.8008 11.0229 4.65946 10.1651C5.53847 9.28607 6.96336 9.28607 7.84236 10.1651L16.1755 18.4982C16.9045 19.2272 17.8937 19.6366 18.9253 19.6366H20.0756C21.1063 19.6366 22.0955 19.2272 22.8253 18.4982L31.1585 10.1651C32.0375 9.28607 33.4624 9.28607 34.3405 10.1651C35.1992 11.0229 35.2221 12.4071 34.3931 13.2937L25.4852 22.8161C24.6893 23.6663 24.2468 24.7869 24.2468 25.9507V32.8149" stroke="white" stroke-miterlimit="10" stroke-linecap="round" stroke-linejoin="round"/>
<defs>
<linearGradient id="paint0_linear_1001_305" x1="25.4854" y1="127.021" x2="27.4641" y2="127.021" gradientUnits="userSpaceOnUse">
<stop stop-color="#F03F21"/>
<stop offset="1" stop-color="#FCDE81"/>
</linearGradient>
<linearGradient id="paint1_linear_1001_305" x1="11.5371" y1="127.022" x2="13.5157" y2="127.022" gradientUnits="userSpaceOnUse">
<stop stop-color="#F03F21"/>
<stop offset="1" stop-color="#FCDE81"/>
</linearGradient>
<linearGradient id="paint2_linear_1001_305" x1="-nan" y1="-nan" x2="-nan" y2="-nan" gradientUnits="userSpaceOnUse">
<stop stop-color="#F03F21"/>
<stop offset="1" stop-color="#FCDE81"/>
</linearGradient>
<linearGradient id="paint3_linear_1001_305" x1="15.4553" y1="121.117" x2="23.4944" y2="121.117" gradientUnits="userSpaceOnUse">
<stop stop-color="#F03F21"/>
<stop offset="1" stop-color="#FCDE81"/>
</linearGradient>
</defs>
</svg>
