<svg width="33" height="33" viewBox="0 0 30 30" fill="none" xmlns="http://www.w3.org/2000/svg">
<path d="M19.0148 9.31918C17.601 7.90624 15.3101 7.90624 13.8972 9.31918L13.4448 9.77154L12.9917 9.31918C11.5788 7.90624 9.28787 7.90624 7.87415 9.31918C6.46122 10.7321 6.46122 13.023 7.87415 14.436L13.4386 20.0004L13.4448 20.0067L13.4504 20.0122L19.0148 14.436C20.4277 13.023 20.4277 10.7321 19.0148 9.31918Z" stroke="#FC7247" stroke-miterlimit="10" stroke-linecap="round" stroke-linejoin="round"/>
<path d="M12.0586 24.1997C10.187 23.2541 8.33506 21.9229 6.65071 20.2378C0.893563 14.4806 -0.732568 6.77161 3.02004 3.01976C5.13393 0.905861 8.50341 0.499132 12.0719 1.57536" stroke="#FC7247" stroke-miterlimit="10" stroke-linecap="round" stroke-linejoin="round"/>
<path d="M14.707 2.62632C16.6203 3.57589 18.5171 4.92825 20.2384 6.65037C25.9955 12.4076 27.6217 20.1166 23.8691 23.8684C21.7552 25.9823 18.3857 26.3898 14.8164 25.3128" stroke="#FC7247" stroke-miterlimit="10" stroke-linecap="round" stroke-linejoin="round"/>
<path d="M2.55664 12.3234C3.50856 10.3629 4.88531 8.41502 6.6499 6.65042C12.407 0.893241 20.116 -0.732113 23.8678 3.01973C26.0313 5.1832 26.4073 8.66206 25.2336 12.3242" stroke="#FC7247" stroke-miterlimit="10"/>
<path d="M24.162 14.9054C23.2179 16.751 21.9002 18.5762 20.2379 20.2377C14.4807 25.9957 6.77176 27.6211 3.01994 23.8684C0.907621 21.7561 0.499312 18.3897 1.57396 14.8228" stroke="#FC7247" stroke-miterlimit="10"/>
</svg>
