<svg width="40" height="40" viewBox="0 0 40 40" fill="none" xmlns="http://www.w3.org/2000/svg">
<path d="M27.3977 24.3131L24.1602 27.5532" stroke="white" stroke-miterlimit="10" stroke-linecap="round" stroke-linejoin="round"/>
<path d="M34.2086 18.5999C34.7314 19.3472 35 20.2298 35 21.1197C35 21.9369 34.7736 22.7613 34.3047 23.4906C33.0021 25.5215 30.3045 26.1279 28.2572 24.8496L27.3984 24.3132L21.801 20.8192C21.4012 20.5698 20.9179 20.4792 20.4607 20.5932C19.9253 20.7286 19.3674 20.7367 19.026 20.5465L15.4534 18.5694C14.3871 17.9792 13.9209 16.6946 14.3593 15.5589C14.7168 14.6341 15.1318 13.5666 15.4903 12.5736C15.6564 12.1152 16.1901 11.9142 16.6159 12.1502L20.3852 14.2367C20.3547 13.7254 20.2433 12.6669 20.1624 11.9268C20.1229 11.5779 20.3448 11.2397 20.6879 11.1697C20.9898 11.1087 21.2826 11.254 21.4201 11.5124C21.7749 12.1798 22.5475 13.6662 22.7747 14.3659C22.8358 14.5516 22.9203 14.8637 23.0002 15.1768C23.1215 15.6567 23.0999 16.1591 22.9454 16.6219L31.1399 20.5698" stroke="white" stroke-miterlimit="10" stroke-linecap="round" stroke-linejoin="round"/>
<path d="M34.2086 18.5999C34.7314 19.3472 35 20.2298 35 21.1197C35 21.9369 34.7736 22.7613 34.3047 23.4906C33.0021 25.5215 30.3045 26.1279 28.2572 24.8496L27.3984 24.3132L21.801 20.8192C21.4012 20.5698 20.9179 20.4792 20.4607 20.5932C19.9253 20.7286 19.3674 20.7367 19.026 20.5465L15.4534 18.5694C14.3871 17.9792 13.9209 16.6946 14.3593 15.5589C14.7168 14.6341 15.1318 13.5666 15.4903 12.5736C15.6564 12.1152 16.1901 11.9142 16.6159 12.1502L20.3852 14.2367C20.3547 13.7254 20.2433 12.6669 20.1624 11.9268C20.1229 11.5779 20.3448 11.2397 20.6879 11.1697C20.9898 11.1087 21.2826 11.254 21.4201 11.5124C21.7749 12.1798 22.5475 13.6662 22.7747 14.3659C22.8358 14.5516 22.9203 14.8637 23.0002 15.1768C23.1215 15.6567 23.0999 16.1591 22.9454 16.6219L31.1399 20.5698" stroke="white" stroke-miterlimit="10" stroke-linecap="round" stroke-linejoin="round"/>
<path d="M6.11978 17.797C5.85747 18.0886 5.63019 18.4214 5.44693 18.7946C4.38422 20.9591 5.28164 23.5731 7.45019 24.6325L15.4102 28.523C15.8315 28.7293 16.1639 29.0872 16.3076 29.5331C16.4774 30.0605 16.7694 30.5369 17.1125 30.7252L20.6888 32.696C21.7569 33.2845 23.0945 32.9966 23.8248 32.0224C24.4177 31.2294 25.1031 30.3081 25.7553 29.4774C26.0553 29.0953 25.9412 28.5356 25.5154 28.3005L24.1599 27.5533L21.7407 26.2212C22.1925 25.9763 23.1493 25.5089 23.8203 25.1824C24.1347 25.0299 24.3045 24.6657 24.1832 24.3392C24.0763 24.0503 23.796 23.8772 23.5032 23.8987C22.7495 23.9535 21.0777 24.0907 20.3609 24.2701C20.1704 24.3167 19.8632 24.4118 19.556 24.5114C19.0825 24.6621 18.6693 24.9474 18.3585 25.325L9.02765 19.5723C8.088 18.9928 7.34689 18.1289 6.9678 17.0929C6.966 17.0866 6.96331 17.0803 6.96151 17.0731C5.99941 14.4197 6.58511 11.3303 8.71682 9.20068C11.6543 6.26644 16.4199 6.26644 19.3574 9.20068L20.2989 10.1408L21.2412 9.20068C24.1787 6.26644 28.9443 6.26644 31.8818 9.20068C34.8211 12.1358 34.8211 16.8928 31.8818 19.8262L31.1389 20.5698" stroke="white" stroke-miterlimit="10"/>
</svg>
