<svg width="100%" height="100%" viewBox="0 0 38 41" fill="none" xmlns="http://www.w3.org/2000/svg">
<path d="M5.94792 21.3454V40.5H0.5V9.73775H5.47938C5.44732 9.73775 5.94792 21.3454 5.94792 21.3454ZM32.0875 9.73775H37.1667V40.5H31.7189V21.5966C31.7189 21.5966 32.0875 9.69139 32.0875 9.73775Z" fill="currentColor"/>
<path d="M18.8523 26.7433C9.75538 26.7433 2.35539 19.1112 2.35539 9.72951H7.38864C7.38864 16.3122 12.5309 21.6674 18.8523 21.6674C25.172 21.6674 30.3141 16.3122 30.3141 9.72951H35.3475C35.3475 19.1112 27.9475 26.7433 18.8523 26.7433Z" fill="currentColor"/>
<path d="M23.7303 5.20201C23.7303 7.79873 21.6466 9.90402 19.0761 9.90402C16.5058 9.90402 14.422 7.79873 14.422 5.20201C14.422 2.60513 16.5058 0.5 19.0761 0.5C21.6466 0.5 23.7303 2.60513 23.7303 5.20201Z" fill="currentColor"/>
</svg>
