<svg width="32" height="32" viewBox="0 0 32 32" fill="none" xmlns="http://www.w3.org/2000/svg">
<path d="M16.0327 32C11.5495 32 7.75685 30.4484 4.65482 27.3452C1.5528 24.242 0.00118761 20.4493 0 15.9673C0 11.8701 1.33606 8.31437 4.00817 5.30023C6.68029 2.28608 10.0947 0.527234 14.2513 0.0236889C14.6373 -0.0356914 14.9787 0.0165634 15.2756 0.180453C15.5725 0.344343 15.81 0.5593 15.9882 0.825324C16.1663 1.09254 16.2631 1.40428 16.2785 1.76056C16.294 2.11685 16.1823 2.45828 15.9436 2.78487C15.4389 3.55682 15.06 4.3733 14.8071 5.23431C14.5541 6.09533 14.4282 7.00088 14.4294 7.95096C14.4294 10.6231 15.3647 12.8944 17.2351 14.7649C19.1056 16.6353 21.3769 17.5706 24.049 17.5706C24.9694 17.5706 25.8827 17.437 26.7888 17.1698C27.695 16.9025 28.5037 16.5314 29.2151 16.0564C29.5417 15.8485 29.876 15.7524 30.2181 15.7678C30.5601 15.7832 30.8641 15.8646 31.1301 16.0118C31.427 16.1603 31.6574 16.383 31.8213 16.6799C31.9852 16.9768 32.0369 17.3331 31.9763 17.7487C31.5606 21.846 29.8166 25.2455 26.7443 27.9473C23.672 30.6491 20.1014 32 16.0327 32Z" fill="currentColor"/>
</svg>
