<svg width="20" height="20" viewBox="0 0 20 20" fill="none" xmlns="http://www.w3.org/2000/svg">
<path d="M6.01667 9.49167C7.21667 11.85 9.15 13.7833 11.5083 14.9833L13.3417 13.15C13.575 12.9167 13.9 12.85 14.1917 12.9417C15.125 13.25 16.125 13.4167 17.1667 13.4167C17.3877 13.4167 17.5996 13.5045 17.7559 13.6607C17.9122 13.817 18 14.029 18 14.25V17.1667C18 17.3877 17.9122 17.5996 17.7559 17.7559C17.5996 17.9122 17.3877 18 17.1667 18C13.4094 18 9.80609 16.5074 7.14932 13.8507C4.49256 11.1939 3 7.59057 3 3.83333C3 3.61232 3.0878 3.40036 3.24408 3.24408C3.40036 3.0878 3.61232 3 3.83333 3H6.75C6.97101 3 7.18298 3.0878 7.33926 3.24408C7.49554 3.40036 7.58333 3.61232 7.58333 3.83333C7.58333 4.875 7.75 5.875 8.05833 6.80833C8.15 7.1 8.08333 7.425 7.85 7.65833L6.01667 9.49167Z" fill="currentColor"/>
</svg>
