<svg width="32" height="32" viewBox="0 0 32 32" fill="none" xmlns="http://www.w3.org/2000/svg">
<path d="M16.0643 9.53114e-05C7.28442 9.53114e-05 0.128643 7.12009 0.128643 15.8561C0.128643 18.6561 0.868342 21.3761 2.25126 23.7761L0 32.0001L8.44221 29.7921C10.7739 31.0561 13.395 31.7281 16.0643 31.7281C24.8442 31.7281 32 24.6081 32 15.8721C32 11.6321 30.3437 7.6481 27.3367 4.6561C25.8624 3.17438 24.1064 1.99956 22.1711 1.20018C20.2357 0.40079 18.1598 -0.00716818 16.0643 9.53114e-05ZM16.0804 2.6721C19.6181 2.6721 22.9307 4.0481 25.4392 6.5441C26.6703 7.76866 27.6464 9.223 28.3114 10.8237C28.9764 12.4244 29.3173 14.14 29.3146 15.8721C29.3146 23.1361 23.3648 29.0401 16.0643 29.0401C13.6844 29.0401 11.3528 28.4161 9.32663 27.2001L8.84422 26.9281L3.82714 28.2401L5.16181 23.3761L4.8402 22.8641C3.51186 20.766 2.80927 18.3358 2.81407 15.8561C2.83015 8.59209 8.76382 2.6721 16.0804 2.6721ZM10.4201 8.5281C10.1628 8.5281 9.72864 8.62409 9.35879 9.0241C9.00502 9.4241 7.9598 10.4001 7.9598 12.3361C7.9598 14.2881 9.39095 16.1601 9.56784 16.4321C9.79296 16.7041 12.398 20.7041 16.402 22.4001C17.3508 22.8321 18.0905 23.0721 18.6693 23.2481C19.6181 23.5521 20.4864 23.5041 21.1779 23.4081C21.9497 23.2961 23.5256 22.4481 23.8633 21.5201C24.201 20.5921 24.201 19.8081 24.1045 19.6321C23.992 19.4721 23.7347 19.3761 23.3327 19.2001C22.9307 18.9761 20.9688 18.0161 20.6151 17.8881C20.2452 17.7601 20.0201 17.6961 19.7146 18.0801C19.4573 18.4801 18.6854 19.3761 18.4603 19.6321C18.2191 19.9041 17.994 19.9361 17.608 19.7441C17.1899 19.5361 15.9035 19.1201 14.392 17.7761C13.202 16.7201 12.4141 15.4241 12.1729 15.0241C11.9799 14.6401 12.1568 14.4001 12.3497 14.2241C12.5266 14.0481 12.7839 13.7601 12.9447 13.5201C13.1538 13.2961 13.2181 13.1201 13.3467 12.8641C13.4754 12.5921 13.4111 12.3681 13.3146 12.1761C13.2181 12.0001 12.4141 10.0161 12.0764 9.2321C11.7548 8.4641 11.4332 8.5601 11.1759 8.5441C10.9508 8.5441 10.6935 8.5281 10.4201 8.5281Z" fill="currentColor"/>
</svg>
