<svg width="40" height="40" viewBox="0 0 40 40" fill="none" xmlns="http://www.w3.org/2000/svg">
<path d="M14.6576 16.9719H9.01953L9.08339 17.4485C9.26072 18.7889 10.3628 19.8197 11.7205 19.9181L17.442 20.3279V28.6519L17.8397 38.2495" stroke="white" stroke-miterlimit="10" stroke-linecap="round" stroke-linejoin="round"/>
<path d="M27.3369 16.9719H32.9749L32.9125 17.4485C32.7337 18.7889 31.6331 19.8197 30.2755 19.9181L24.5539 20.3279V28.6519L24.1562 38.2495" stroke="white" stroke-miterlimit="10" stroke-linecap="round" stroke-linejoin="round"/>
<path d="M21 27.8847V38.2495" stroke="white" stroke-miterlimit="10" stroke-linecap="round" stroke-linejoin="round"/>
<path d="M14.186 28.439L10.9914 21.4915L7.79688 28.439" stroke="white" stroke-miterlimit="10" stroke-linecap="round" stroke-linejoin="round"/>
<path d="M7 29.7656H14.9864" stroke="white" stroke-miterlimit="10" stroke-linecap="round" stroke-linejoin="round"/>
<path d="M34.1997 28.439L31.0052 21.4915L27.8105 28.439" stroke="white" stroke-miterlimit="10" stroke-linecap="round" stroke-linejoin="round"/>
<path d="M27.0137 29.7656H35.0001" stroke="white" stroke-miterlimit="10" stroke-linecap="round" stroke-linejoin="round"/>
<path d="M14.3477 12.139C14.3477 16.0816 17.3262 19.2778 21.0002 19.2778C24.6742 19.2778 27.6527 16.0816 27.6527 12.139C27.6527 8.19632 24.6742 5.00013 21.0002 5.00013C17.3262 5.00013 14.3477 8.19632 14.3477 12.139Z" stroke="url(#paint0_linear_974_247)" stroke-miterlimit="10"/>
<path d="M18.6035 9.98915L18.7216 9.57665C18.8309 9.19484 19.0217 8.8365 19.3037 8.55488C19.9201 7.9402 20.8499 7.68927 21.7278 7.96637C22.7209 8.28048 23.3953 9.19665 23.3953 10.232C23.3953 10.7654 23.16 11.2718 22.7515 11.6175L21.9717 12.2782C21.3328 12.8189 20.9649 13.6105 20.9649 14.4436V14.7207" stroke="url(#paint1_linear_974_247)" stroke-miterlimit="10"/>
<path d="M20.9742 16.4248H20.957V16.4069H20.9742V16.4248Z" stroke="url(#paint2_linear_974_247)" stroke-miterlimit="10"/>
<defs>
<linearGradient id="paint0_linear_974_247" x1="14.0296" y1="43.1907" x2="27.9707" y2="43.1907" gradientUnits="userSpaceOnUse">
<stop stop-color="#F03F21"/>
<stop offset="1" stop-color="#FCDE81"/>
</linearGradient>
<linearGradient id="paint1_linear_974_247" x1="18.2975" y1="44.1811" x2="23.7134" y2="44.1811" gradientUnits="userSpaceOnUse">
<stop stop-color="#F03F21"/>
<stop offset="1" stop-color="#FCDE81"/>
</linearGradient>
<linearGradient id="paint2_linear_974_247" x1="20.6269" y1="39.9204" x2="21.3043" y2="39.9204" gradientUnits="userSpaceOnUse">
<stop stop-color="#F03F21"/>
<stop offset="1" stop-color="#FCDE81"/>
</linearGradient>
</defs>
</svg>
