<svg width="40" height="40" viewBox="0 0 40 40" fill="none" xmlns="http://www.w3.org/2000/svg">
<path d="M27.0098 12.9907L30.9355 9.06411" stroke="#FC7247" stroke-miterlimit="10" stroke-linecap="round" stroke-linejoin="round"/>
<path d="M31.3148 12.8643V8.6862H27.1367" stroke="#FC7247" stroke-miterlimit="10" stroke-linecap="round" stroke-linejoin="round"/>
<path d="M29.9141 20.0005H35.4663" stroke="#FC7247" stroke-miterlimit="10" stroke-linecap="round" stroke-linejoin="round"/>
<path d="M33.0469 22.9541L36.0007 20.0002L33.0469 17.0455" stroke="#FC7247" stroke-miterlimit="10" stroke-linecap="round" stroke-linejoin="round"/>
<path d="M27.0098 27.0103L30.9355 30.936" stroke="#FC7247" stroke-miterlimit="10" stroke-linecap="round" stroke-linejoin="round"/>
<path d="M27.1367 31.314H31.3148V27.1368" stroke="#FC7247" stroke-miterlimit="10" stroke-linecap="round" stroke-linejoin="round"/>
<path d="M20 29.9136V35.4658" stroke="#FC7247" stroke-miterlimit="10" stroke-linecap="round" stroke-linejoin="round"/>
<path d="M17.0469 33.0461L20.0007 36L22.9554 33.0461" stroke="#FC7247" stroke-miterlimit="10" stroke-linecap="round" stroke-linejoin="round"/>
<path d="M12.9902 27.0103L9.06445 30.936" stroke="#FC7247" stroke-miterlimit="10" stroke-linecap="round" stroke-linejoin="round"/>
<path d="M8.68555 27.1368V31.314H12.8636" stroke="#FC7247" stroke-miterlimit="10" stroke-linecap="round" stroke-linejoin="round"/>
<path d="M10.0854 20.0005H4.5332" stroke="#FC7247" stroke-miterlimit="10" stroke-linecap="round" stroke-linejoin="round"/>
<path d="M6.95385 17.0455L4 20.0002L6.95385 22.9541" stroke="#FC7247" stroke-miterlimit="10" stroke-linecap="round" stroke-linejoin="round"/>
<path d="M12.9902 12.9907L9.06445 9.06411" stroke="#FC7247" stroke-miterlimit="10" stroke-linecap="round" stroke-linejoin="round"/>
<path d="M12.8636 8.6862H8.68555V12.8643" stroke="#FC7247" stroke-miterlimit="10" stroke-linecap="round" stroke-linejoin="round"/>
<path d="M20 10.0874V4.53515" stroke="#FC7247" stroke-miterlimit="10" stroke-linecap="round" stroke-linejoin="round"/>
<path d="M22.9554 6.9541L20.0007 4.00023L17.0469 6.9541" stroke="#FC7247" stroke-miterlimit="10" stroke-linecap="round" stroke-linejoin="round"/>
<path d="M17.5098 15.1203C17.5098 16.6063 18.6239 17.8105 19.9989 17.8105C21.3748 17.8105 22.4889 16.6063 22.4889 15.1203C22.4889 13.6342 21.3748 12.43 19.9989 12.43C18.6239 12.43 17.5098 13.6342 17.5098 15.1203Z" stroke="#FC7247" stroke-miterlimit="10"/>
<path d="M14.1074 22.6274V25.2163H25.8925V22.6274C25.8925 21.0894 24.6458 19.8427 23.1077 19.8427H16.8922C15.3542 19.8427 14.1074 21.0894 14.1074 22.6274Z" stroke="#FC7247" stroke-miterlimit="10"/>
</svg>
