<svg width="40" height="40" viewBox="0 0 40 40" fill="none" xmlns="http://www.w3.org/2000/svg">
<path d="M11.2233 25.3223L6.55826 20.7153C3.14725 17.3499 3.14725 11.8908 6.55826 8.52546C9.96754 5.15813 15.4975 5.15813 18.9068 8.52546L19.9999 9.60288L21.0931 8.52546C24.5024 5.15813 30.0324 5.15813 33.4417 8.52546C36.8528 11.8908 36.8528 17.3499 33.4417 20.7153L28.7853 25.3223" stroke="white" stroke-miterlimit="10" stroke-linecap="round" stroke-linejoin="round"/>
<path d="M24.8315 21.0106C24.6528 21.3856 23.8592 22.2668 22.6609 21.7218C21.9218 21.3856 21.6619 20.4802 21.9913 19.7467C22.1738 19.3415 22.2829 18.917 22.3385 18.4905C22.6024 16.4784 21.6609 14.4897 19.9358 13.2831C18.9001 12.5573 18.1392 12.3174 18.1392 12.3174C18.1392 12.3174 18.8435 14.2293 17.6104 16.4026C16.4557 18.438 13.0193 19.9672 12.7554 23.6182C12.6741 24.7423 12.9234 25.8809 13.4137 26.8835C13.5506 27.1633 13.7965 27.5335 14.0381 27.8716C14.4111 28.3943 14.8304 28.882 15.2882 29.3347L19.9857 33.9718L20.0002 33.9854L20.0146 34L20.7357 33.2869L21.3368 32.6923L25.0005 29.0675C26.2599 27.8201 27.4906 25.8761 27.4415 23.6182C27.4009 21.7723 26.4386 20.112 25.0209 18.7508C25.1509 19.5329 25.1469 20.349 24.8315 21.0106Z" stroke="url(#paint0_linear_974_248)" stroke-miterlimit="10"/>
<defs>
<linearGradient id="paint0_linear_974_248" x1="12.3958" y1="227.292" x2="27.7874" y2="227.292" gradientUnits="userSpaceOnUse">
<stop stop-color="#F03F21"/>
<stop offset="1" stop-color="#FCDE81"/>
</linearGradient>
</defs>
</svg>
