<svg width="40" height="40" viewBox="0 0 40 40" fill="none" xmlns="http://www.w3.org/2000/svg">
<path d="M29.78 24.8233C30.7449 25.7861 32.3114 25.7861 33.2763 24.8233C34.2412 23.8594 34.2412 22.2987 33.2763 21.3348L23.7734 11.8532" stroke="#FC7247" stroke-miterlimit="10"/>
<path d="M6.37714 22.397L4.89564 20.9188C1.03479 17.0654 1.03479 10.8214 4.89564 6.96802C8.75537 3.1158 15.0157 3.1158 18.8777 6.96802L20.1389 8.22755" stroke="#FC7247" stroke-miterlimit="10"/>
<path d="M22.2949 17.3547L29.7807 24.8237C30.7456 25.7865 30.7456 27.3483 29.7807 28.3111C28.8146 29.2739 27.2504 29.2739 26.2843 28.3111" stroke="#FC7247" stroke-miterlimit="10"/>
<path d="M23.8334 32.4188C24.0626 32.488 24.3019 32.5215 24.5389 32.5215C25.1696 32.5215 25.8024 32.2794 26.2866 31.7974C27.2515 30.8347 27.2515 29.2739 26.2866 28.3111L18.8008 20.8421" stroke="#FC7247" stroke-miterlimit="10"/>
<path d="M34.1201 22.1772L35.4585 20.8396C39.3205 16.9874 39.3205 10.7411 35.4585 6.88999C31.5988 3.03665 25.3385 3.03665 21.4776 6.88999L16.3097 12.0464C15.3056 13.0482 15.3056 14.6714 16.3097 15.6732C17.3138 16.675 18.9406 16.6739 19.9447 15.6732L23.7731 11.8534" stroke="#FC7247" stroke-miterlimit="10" stroke-linecap="round" stroke-linejoin="round"/>
<path d="M23.6507 29.1342C24.6156 30.0981 24.6156 31.6589 23.6507 32.6216L20.9896 35.2779C20.0235 36.2407 18.4593 36.2407 17.4932 35.2779C16.5283 34.3151 16.5283 32.7533 17.4932 31.7905L20.1555 29.1342C21.1204 28.1715 22.6857 28.1715 23.6507 29.1342Z" stroke="#FC7247" stroke-miterlimit="10" stroke-linecap="round" stroke-linejoin="round"/>
<path d="M20.1565 25.6469C21.1215 26.6097 21.1215 28.1716 20.1565 29.1343L17.4943 31.7906C16.5294 32.7534 14.964 32.7534 13.9991 31.7906C13.0342 30.8267 13.0342 29.266 13.9991 28.3021L16.6613 25.6469C17.6263 24.6841 19.1916 24.6841 20.1565 25.6469Z" stroke="#FC7247" stroke-miterlimit="10" stroke-linecap="round" stroke-linejoin="round"/>
<path d="M16.6605 22.1594C17.6254 23.1222 17.6254 24.684 16.6605 25.6468L13.9982 28.302C13.0333 29.2659 11.4679 29.2659 10.503 28.302C9.53806 27.3392 9.53806 25.7774 10.503 24.8146L13.1641 22.1594C14.1302 21.1966 15.6944 21.1966 16.6605 22.1594Z" stroke="#FC7247" stroke-miterlimit="10" stroke-linecap="round" stroke-linejoin="round"/>
<path d="M13.1652 18.672C14.1312 19.6347 14.1312 21.1966 13.1652 22.1594L10.5041 24.8145C9.53915 25.7773 7.97379 25.7773 7.00886 24.8145C6.04392 23.8518 6.04392 22.2899 7.00886 21.3271L9.66997 18.672C10.636 17.7081 12.2003 17.7081 13.1652 18.672Z" stroke="#FC7247" stroke-miterlimit="10" stroke-linecap="round" stroke-linejoin="round"/>
</svg>
