<?xml version="1.0" standalone="no"?>
<!DOCTYPE svg PUBLIC "-//W3C//DTD SVG 20010904//EN"
 "http://www.w3.org/TR/2001/REC-SVG-20010904/DTD/svg10.dtd">
<svg version="1.0" xmlns="http://www.w3.org/2000/svg"
 width="260.000000pt" height="260.000000pt" viewBox="0 0 260.000000 260.000000"
 preserveAspectRatio="xMidYMid meet">
<metadata>
Created by potrace 1.14, written by Peter Selinger 2001-2017
</metadata>
<g transform="translate(0.000000,260.000000) scale(0.100000,-0.100000)"
fill="#000000" stroke="none">
<path d="M0 1300 l0 -1300 1300 0 1300 0 0 1300 0 1300 -1300 0 -1300 0 0
-1300z m2460 0 l0 -1160 -1160 0 -1160 0 0 1160 0 1160 1160 0 1160 0 0 -1160z"/>
<path d="M704 1301 l1 -596 58 -2 c56 -2 57 -2 58 25 0 15 1 222 1 460 l0 433
59 -120 c32 -66 73 -151 90 -188 17 -38 54 -115 81 -173 28 -58 66 -139 85
-180 19 -41 55 -117 80 -168 l45 -93 39 3 c45 2 18 -45 209 358 51 107 123
260 161 339 38 79 69 146 69 150 0 3 9 19 19 35 18 28 19 22 17 -423 -1 -293
3 -452 9 -454 6 -2 33 -3 60 -3 l50 1 0 595 0 595 -56 1 -56 2 -31 -62 c-31
-60 -140 -287 -209 -436 -20 -41 -74 -154 -120 -250 -47 -96 -92 -192 -101
-214 -14 -37 -16 -38 -30 -20 -8 11 -22 37 -32 59 -10 22 -49 105 -88 185 -71
148 -179 372 -292 607 l-63 132 -57 0 -57 -1 1 -597z"/>
</g>
</svg>
