<svg width="289" height="219" viewBox="0 0 289 219" fill="none" xmlns="http://www.w3.org/2000/svg">
<path d="M144.04 89.4839C144.04 106.753 140.924 122.157 134.691 135.698C128.652 149.042 120.179 159.54 109.272 167.194C98.3641 174.847 85.9955 178.673 72.1661 178.673C58.1419 178.673 45.676 174.847 34.7683 167.194C24.0554 159.54 15.5824 149.042 9.34946 135.698C3.11649 122.157 0 106.753 0 89.4839C0 72.2151 3.11649 56.9086 9.34946 43.5645C15.5824 30.0242 24.0554 19.4274 34.7683 11.7742C45.676 3.92473 58.1419 0 72.1661 0C85.9955 0 98.3641 3.92473 109.272 11.7742C120.179 19.4274 128.652 30.0242 134.691 43.5645C140.924 56.9086 144.04 72.2151 144.04 89.4839ZM134.106 89.4839C134.106 73.7849 131.477 59.9503 126.218 47.9798C120.959 36.0094 113.654 26.6882 104.305 20.0161C95.1502 13.1478 84.4373 9.71371 72.1661 9.71371C59.895 9.71371 49.0846 13.1478 39.7352 20.0161C30.3857 26.6882 23.0815 36.0094 17.8224 47.9798C12.5633 59.9503 9.9338 73.7849 9.9338 89.4839C9.9338 105.183 12.5633 119.017 17.8224 130.988C23.0815 142.958 30.3857 152.28 39.7352 158.952C49.0846 165.624 59.895 168.96 72.1661 168.96C84.4373 168.96 95.1502 165.624 104.305 158.952C113.654 152.083 120.959 142.762 126.218 130.988C131.477 119.017 134.106 105.183 134.106 89.4839Z" fill="#F8F9FA" fill-opacity="0.09"/>
<path d="M254.006 106.262C263.16 107.44 271.049 110.579 277.672 115.681C284.489 120.784 289.748 127.259 293.449 135.109C297.15 142.762 299 151.396 299 161.012C299 172.59 296.273 182.696 290.819 191.331C285.56 200.161 278.159 206.931 268.614 211.641C259.07 216.547 248.065 219 235.599 219C220.99 219 208.135 215.664 197.032 208.992C186.125 202.516 178.431 193.685 173.951 182.5L181.84 177.202C185.346 187.013 191.871 194.863 201.415 200.75C211.154 206.637 222.646 209.581 235.891 209.581C252.058 209.581 264.913 205.165 274.458 196.335C284.197 187.504 289.066 175.534 289.066 160.423C289.066 145.117 284.197 133.048 274.458 124.218C264.719 115.191 251.181 110.677 233.846 110.677H227.126V101.552H234.138C250.694 101.552 263.355 97.922 272.12 90.6613C280.885 83.2043 285.268 73.2943 285.268 60.9314C285.268 51.5121 283.125 43.4664 278.84 36.7943C274.555 30.1223 268.712 24.922 261.31 21.1935C253.908 17.465 245.338 15.6008 235.599 15.6008C223.717 15.6008 213.199 18.5444 204.045 24.4315C195.085 30.1223 188.56 37.7755 184.469 47.3911L177.165 42.3871C180.087 35.1263 184.372 28.7487 190.02 23.254C195.864 17.7594 202.681 13.5403 210.472 10.5968C218.458 7.65322 227.029 6.18144 236.183 6.18144C247.675 6.18144 257.804 8.43816 266.569 12.9516C275.529 17.465 282.541 23.7446 287.605 31.7903C292.864 39.836 295.494 48.961 295.494 59.1653C295.494 67.4073 293.741 74.8642 290.235 81.5363C286.924 88.2083 282.152 93.703 275.919 98.0202C269.88 102.337 262.576 105.085 254.006 106.262Z" fill="#F8F9FA" fill-opacity="0.09"/>
</svg>
