<?xml version="1.0" standalone="no"?>
<!DOCTYPE svg PUBLIC "-//W3C//DTD SVG 20010904//EN"
 "http://www.w3.org/TR/2001/REC-SVG-20010904/DTD/svg10.dtd">
<svg version="1.0" xmlns="http://www.w3.org/2000/svg"
 width="656.000000pt" height="656.000000pt" viewBox="0 0 656.000000 656.000000"
 preserveAspectRatio="xMidYMid meet">
<metadata>
Created by potrace 1.14, written by Peter Selinger 2001-2017
</metadata>
<g transform="translate(0.000000,656.000000) scale(0.100000,-0.100000)"
fill="#000000" stroke="none">
<path d="M3308 6485 c-3 -3 -36 -7 -74 -10 -382 -24 -690 -361 -685 -750 2
-86 6 -120 25 -196 17 -65 70 -185 92 -206 8 -8 14 -18 14 -22 0 -24 136 -157
209 -204 36 -23 67 -42 70 -42 3 0 13 -5 21 -10 18 -11 76 -34 105 -40 11 -3
40 -9 65 -15 115 -27 273 -14 400 32 106 39 191 97 278 187 65 66 140 180 132
200 -1 2 3 7 9 10 5 4 21 47 36 96 120 416 -122 837 -544 945 -24 6 -63 13
-86 14 -23 2 -47 6 -52 9 -6 4 -12 4 -15 2z"/>
<path d="M329 4999 c-6 -3 -9 -10 -8 -15 1 -5 0 -13 -1 -19 -1 -5 -1 -55 -1
-110 1 -55 1 -106 1 -112 0 -34 0 -47 1 -93 1 -28 -1 -53 -4 -56 -3 -3 -1 -19
3 -35 5 -16 5 -31 0 -34 -4 -3 -4 -20 0 -39 4 -19 4 -40 0 -46 -4 -7 -4 -25 0
-41 5 -15 5 -30 2 -34 -8 -7 -5 -102 3 -115 3 -6 2 -10 -4 -10 -6 0 -6 -11 -1
-30 5 -17 5 -30 0 -30 -5 0 -5 -13 0 -30 5 -17 5 -30 0 -30 -5 0 -5 -13 0 -30
5 -17 5 -30 0 -30 -5 0 -5 -13 0 -30 5 -17 5 -30 0 -30 -5 0 -5 -13 0 -30 5
-17 5 -30 0 -30 -5 0 -5 -13 0 -30 5 -17 5 -30 0 -30 -5 0 -5 -13 0 -30 5 -17
5 -30 0 -30 -5 0 -5 -13 0 -30 5 -19 5 -30 -1 -30 -6 0 -7 -5 -4 -10 8 -14 11
-108 3 -116 -4 -3 -2 -19 2 -35 5 -16 5 -31 0 -34 -4 -3 -4 -20 0 -39 4 -19 4
-40 0 -46 -4 -7 -4 -25 0 -41 5 -15 6 -30 3 -33 -8 -8 -9 -196 -1 -196 4 0 3
-13 -2 -30 -5 -17 -5 -30 0 -30 5 0 5 -13 0 -30 -5 -17 -5 -30 0 -30 5 0 5
-13 0 -30 -5 -17 -5 -30 0 -30 5 0 5 -13 0 -29 -4 -15 -4 -34 0 -42 5 -7 5
-20 0 -29 -5 -9 -5 -22 0 -30 5 -8 5 -21 0 -30 -5 -9 -5 -22 0 -30 5 -8 5 -21
0 -31 -5 -9 -7 -19 -3 -22 7 -8 8 -106 0 -113 -3 -3 -1 -19 3 -35 5 -16 5 -31
0 -34 -4 -3 -4 -20 0 -39 4 -19 4 -40 0 -46 -4 -7 -4 -25 0 -41 5 -15 5 -30 2
-34 -8 -7 -5 -102 3 -115 3 -6 2 -10 -4 -10 -6 0 -6 -11 -1 -30 5 -17 5 -30 0
-30 -5 0 -5 -13 0 -30 5 -17 5 -30 0 -30 -5 0 -5 -13 0 -30 5 -17 5 -30 0 -30
-5 0 -5 -13 0 -30 5 -17 5 -30 0 -30 -5 0 -5 -13 0 -30 5 -17 5 -30 0 -30 -5
0 -5 -13 0 -30 5 -17 5 -30 0 -30 -5 0 -5 -13 0 -30 5 -17 5 -30 0 -30 -5 0
-5 -13 0 -30 5 -19 5 -30 -1 -30 -6 0 -7 -5 -4 -10 8 -14 11 -108 3 -116 -4
-3 -2 -19 2 -35 5 -16 5 -31 0 -34 -4 -3 -4 -20 0 -39 4 -19 4 -40 0 -46 -4
-7 -4 -25 0 -41 5 -15 6 -30 3 -33 -8 -8 -9 -196 -1 -196 4 0 3 -13 -2 -30 -5
-17 -5 -30 0 -30 5 0 5 -13 0 -30 -5 -17 -5 -30 0 -30 5 0 5 -13 0 -30 -5 -17
-5 -30 0 -30 5 0 5 -13 0 -29 -4 -15 -4 -34 0 -42 5 -7 5 -20 0 -29 -5 -9 -5
-22 0 -30 5 -8 5 -21 0 -30 -5 -9 -5 -22 0 -30 5 -8 5 -21 0 -31 -5 -9 -7 -19
-3 -22 7 -8 8 -106 0 -113 -3 -3 -1 -19 3 -35 5 -16 5 -31 0 -34 -4 -3 -4 -20
0 -39 4 -19 4 -40 0 -46 -4 -7 -4 -25 0 -41 5 -15 5 -30 2 -34 -8 -7 -5 -102
3 -115 3 -6 2 -10 -4 -10 -6 0 -6 -11 -1 -30 5 -17 5 -30 0 -30 -5 0 -5 -13 0
-30 5 -17 5 -30 0 -30 -5 0 -5 -13 0 -30 5 -17 5 -30 0 -30 -5 0 -5 -13 0 -28
4 -16 4 -36 -2 -45 -5 -10 -5 -17 0 -17 5 0 8 -10 8 -22 -1 -15 7 -23 26 -29
16 -4 30 -3 34 2 3 5 10 7 15 3 9 -5 598 -9 624 -4 6 1 15 1 20 0 16 -3 140 1
143 5 5 5 3 3133 -2 3184 l-5 45 33 -35 c19 -19 33 -35 31 -37 -5 -6 167 -186
271 -283 97 -90 376 -299 401 -299 3 0 14 -6 22 -13 49 -42 321 -169 485 -226
87 -31 287 -84 356 -95 19 -3 45 -8 56 -10 172 -35 609 -42 773 -11 9 1 36 6
61 10 57 9 79 13 110 21 14 3 38 8 53 10 46 9 252 71 276 83 11 7 21 9 21 7 0
-5 152 56 182 74 10 5 24 10 32 10 8 0 16 3 18 8 2 4 35 23 73 42 80 39 218
121 223 133 2 4 10 7 18 7 8 0 14 5 14 10 0 6 5 10 11 10 13 0 152 104 244
183 82 71 211 199 277 277 26 30 57 67 70 82 l23 28 0 -1610 0 -1610 25 0 c14
1 197 0 407 0 210 -1 387 1 392 5 6 3 11 2 11 -3 0 -6 8 -8 18 -5 18 4 18 95
18 2464 l0 2459 -25 1 c-195 7 -1064 2 -1067 -6 -2 -5 -6 -53 -9 -105 -5 -111
-13 -171 -39 -305 -14 -72 -66 -247 -78 -259 -4 -6 -8 -20 -8 -32 0 -12 -7
-27 -15 -34 -8 -6 -13 -15 -12 -19 3 -10 -36 -95 -48 -103 -5 -4 -7 -8 -3 -8
7 0 -86 -175 -102 -190 -3 -3 -19 -25 -35 -50 -40 -60 -39 -59 -77 -104 -93
-111 -156 -175 -263 -271 -69 -61 -237 -172 -348 -229 -59 -30 -107 -52 -107
-49 0 3 -6 1 -12 -5 -31 -24 -264 -93 -398 -117 -145 -25 -429 -25 -563 1
-219 41 -339 80 -505 162 -81 40 -237 135 -286 174 -137 110 -276 246 -341
333 -34 46 -37 50 -68 90 -66 84 -196 330 -227 430 -7 22 -18 54 -25 70 -11
25 -42 133 -49 170 -2 6 -8 35 -14 65 -22 109 -36 226 -36 322 -1 38 -5 68
-11 69 -39 5 -1079 3 -1086 -2z"/>
</g>
</svg>
