<svg width="541" height="384" viewBox="0 0 541 384" fill="none" xmlns="http://www.w3.org/2000/svg">
<path d="M253.663 156.69C253.663 186.786 248.191 213.633 237.247 237.231C226.645 260.487 211.768 278.784 192.616 292.122C173.464 305.46 151.747 312.129 127.465 312.129C102.841 312.129 80.9529 305.46 61.8009 292.122C42.9909 278.784 28.1139 260.487 17.1699 237.231C6.22591 213.633 0.753906 186.786 0.753906 156.69C0.753906 126.594 6.22591 99.9183 17.1699 76.6623C28.1139 53.0643 42.9909 34.5963 61.8009 21.2583C80.9529 7.57828 102.841 0.738281 127.465 0.738281C151.747 0.738281 173.464 7.57828 192.616 21.2583C211.768 34.5963 226.645 53.0643 237.247 76.6623C248.191 99.9183 253.663 126.594 253.663 156.69ZM236.221 156.69C236.221 129.33 231.604 105.219 222.37 84.3573C213.136 63.4953 200.311 47.2503 183.895 35.6223C167.821 23.6523 149.011 17.6673 127.465 17.6673C105.919 17.6673 86.9379 23.6523 70.5219 35.6223C54.1059 47.2503 41.2809 63.4953 32.0469 84.3573C22.8129 105.219 18.1959 129.33 18.1959 156.69C18.1959 184.05 22.8129 208.161 32.0469 229.023C41.2809 249.885 54.1059 266.13 70.5219 277.758C86.9379 289.386 105.919 295.2 127.465 295.2C149.011 295.2 167.821 289.386 183.895 277.758C200.311 265.788 213.136 249.543 222.37 229.023C231.604 208.161 236.221 184.05 236.221 156.69Z" fill="#E3E6EA"/>
<path d="M418.528 383.436C392.878 383.436 369.622 376.596 348.76 362.916C328.24 349.578 313.021 331.965 303.103 310.077L317.98 304.947C327.214 323.415 340.723 338.292 358.507 349.578C376.633 361.206 396.64 367.02 418.528 367.02C438.022 367.02 455.635 362.574 471.367 353.682C487.099 345.132 499.582 333.162 508.816 317.772C518.392 302.382 523.18 284.598 523.18 264.42C523.18 244.926 518.563 227.826 509.329 213.12C500.437 198.072 488.296 186.444 472.906 178.236C457.516 169.686 440.245 165.411 421.093 165.411C402.967 165.411 385.525 169.515 368.767 177.723C352.351 185.931 338.842 197.73 328.24 213.12H309.772L350.299 14.0763H523.693V31.0053H364.15L332.857 186.957C344.143 174.645 357.652 165.24 373.384 158.742C389.116 152.244 405.532 148.995 422.632 148.995C444.178 148.995 463.843 153.954 481.627 163.872C499.753 173.79 514.117 187.47 524.719 204.912C535.321 222.012 540.622 241.848 540.622 264.42C540.622 288.018 534.979 308.709 523.693 326.493C512.749 344.619 497.872 358.641 479.062 368.559C460.594 378.477 440.416 383.436 418.528 383.436Z" fill="#E3E6EA"/>
</svg>
